<svg width="18" height="18" viewBox="0 0 18 18" fill="none" xmlns="http://www.w3.org/2000/svg">
<path fill-rule="evenodd" clip-rule="evenodd" d="M0.25 3C0.25 1.48122 1.48122 0.25 3 0.25H15C16.5188 0.25 17.75 1.48122 17.75 3V15C17.75 16.5188 16.5188 17.75 15 17.75H3C1.63457 17.75 0.502852 16.7556 0.287001 15.4515C0.26261 15.3041 0.25 15.1533 0.25 15V3ZM3 1.75C2.30964 1.75 1.75 2.30964 1.75 3V13.5453L4.3173 10.978C4.32906 10.9662 4.34122 10.9549 4.35375 10.9439C5.28879 10.1257 6.65627 10.0362 7.69006 10.7254L8.19919 11.0648C8.65211 11.3667 9.24837 11.3409 9.67343 11.0008L12.3216 8.88227C13.2498 8.13971 14.5424 8.08155 15.5294 8.71816C15.6731 8.81091 15.7869 8.91645 15.8703 8.99983C15.8703 8.99983 15.8703 8.99983 15.8703 8.99983L16.25 9.37949V3C16.25 2.30964 15.6904 1.75 15 1.75H3ZM16.25 11.5008L14.8097 10.0605C14.7592 10.0101 14.7315 9.98852 14.7163 9.97868C14.2681 9.68959 13.6804 9.71618 13.2586 10.0536L10.6105 12.1721C9.67533 12.9202 8.36357 12.9771 7.36714 12.3129L6.85801 11.9734C6.39424 11.6643 5.78272 11.6999 5.35824 12.0584L1.87358 15.543C2.07569 15.9613 2.5046 16.25 3 16.25H15C15.6904 16.25 16.25 15.6904 16.25 15V11.5008ZM6 4.75C5.30964 4.75 4.75 5.30964 4.75 6C4.75 6.69036 5.30964 7.25 6 7.25C6.69036 7.25 7.25 6.69036 7.25 6C7.25 5.30964 6.69036 4.75 6 4.75ZM3.25 6C3.25 4.48122 4.48122 3.25 6 3.25C7.51878 3.25 8.75 4.48122 8.75 6C8.75 7.51878 7.51878 8.75 6 8.75C4.48122 8.75 3.25 7.51878 3.25 6Z" fill="#0C0C0C"/>
</svg>
